<?xml version="1.0" encoding="utf-8"?>
<!-- Generator: Adobe Illustrator 22.1.0, SVG Export Plug-In . SVG Version: 6.00 Build 0)  -->
<svg version="1.1" id="Warstwa_1" xmlns="http://www.w3.org/2000/svg" xmlns:xlink="http://www.w3.org/1999/xlink" x="0px" y="0px"
	 viewBox="0 0 250 250" style="enable-background:new 0 0 250 250;" xml:space="preserve">
<style type="text/css">
	.st0{fill:#B4392E;}
	.st1{fill:#FFFFFF;}
</style>
<rect y="0" class="st0" width="250" height="250"/>
<g>
	<path class="st1" d="M223.8,200.8l-61.3-61.3c-2-2-2.3-5-0.9-7.4c7.4-12.8,10.7-27.6,9.3-42.9c-1.3-14.6-7.2-28.6-16.7-39.8
		c-14-16.5-33.9-25.7-55.2-25.7c-19.3,0-37.5,7.5-51.1,21.2C32,60.6,24.4,82.4,27.2,105.1c1.6,12.8,6.6,24.9,14.5,35.1
		c14.1,18,34.8,28,57.2,28c13.1,0,25.6-3.4,36.5-9.9c2.4-1.4,5.5-1.1,7.5,0.9l61.2,61.2c2.1,2.1,5.8,1.6,8.4-1l10.2-10.2
		C225.4,206.6,225.8,202.8,223.8,200.8z M103.2,148.4C70.7,151,43.8,124,46.3,91.6c2-25.5,22.7-46.2,48.2-48.2
		c32.4-2.6,59.4,24.4,56.8,56.8C149.4,125.7,128.7,146.4,103.2,148.4z"/>
	<path class="st1" d="M120.3,86.9l-12.7,0l0-12.4c0-2.5-2-4.6-4.6-4.6l-8.9,0c-2.5,0-4.6,2-4.6,4.6l0,12.4l-12.2,0
		c-2.5,0-4.6,2-4.6,4.6l0,8.9c0,2.5,2,4.6,4.6,4.6l12.2,0l0,12.5c0,2.5,2,4.6,4.6,4.6l8.9,0c2.5,0,4.6-2,4.6-4.6l0-12.5l12.7,0
		c2.5,0,4.6-2,4.6-4.6l0-8.9C124.9,88.9,122.8,86.9,120.3,86.9z"/>
</g>
</svg>
